M48
; DRILL file {KiCad (6.0.11)} date Sat Mar 11 00:42:57 2023
; FORMAT={-:-/ absolute / inch / decimal}
; #@! TF.CreationDate,2023-03-11T00:42:57-07:00
; #@! TF.GenerationSoftware,Kicad,Pcbnew,(6.0.11)
; #@! TF.FileFunction,Plated,1,2,PTH
FMAT,2
INCH
; #@! TA.AperFunction,Plated,PTH,ViaDrill
T1C0.0157
; #@! TA.AperFunction,Plated,PTH,ComponentDrill
T2C0.0276
; #@! TA.AperFunction,Plated,PTH,ComponentDrill
T3C0.0315
; #@! TA.AperFunction,Plated,PTH,ComponentDrill
T4C0.0394
; #@! TA.AperFunction,Plated,PTH,ComponentDrill
T5C0.0400
; #@! TA.AperFunction,Plated,PTH,ComponentDrill
T6C0.0433
; #@! TA.AperFunction,Plated,PTH,ComponentDrill
T7C0.0600
; #@! TA.AperFunction,Plated,PTH,ComponentDrill
T8C0.1290
%
G90
G05
T1
X3.045Y-3.84
X3.075Y-2.23
X3.335Y-2.1
X3.335Y-3.84
X3.445Y-2.24
X3.445Y-3.06
X3.525Y-3.38
X3.635Y-1.89
X3.735Y-2.1
X3.735Y-5.04
X4.035Y-2.44
X4.0565Y-3.19
X4.1135Y-3.28
X4.125Y-3.435
X4.142Y-3.22
X4.165Y-3.06
X4.2198Y-1.8548
X4.27Y-1.9
X4.285Y-4.9812
X4.2952Y-1.8602
X4.34Y-2.44
X4.345Y-4.015
X4.42Y-4.98
X4.4284Y-2.2729
X4.45Y-2.24
X4.45Y-2.44
X4.5065Y-2.6913
X4.515Y-4.888
X4.525Y-1.83
X4.5296Y-1.9081
X4.53Y-1.79
X4.5315Y-1.8688
X4.56Y-4.9165
X4.665Y-2.585
X5.205Y-1.83
X5.305Y-1.865
X5.305Y-1.91
X5.305Y-2.24
X5.3611Y-1.7889
X5.445Y-4.9
X5.76Y-4.89
X6.555Y-5.0
T2
X4.705Y-1.5916
X4.705Y-2.1866
X4.905Y-1.5916
X4.905Y-2.1866
X5.005Y-1.5916
X5.005Y-2.1866
X5.205Y-1.5916
X5.205Y-2.1866
X5.52Y-2.1866
X5.525Y-1.5916
X5.54Y-1.7616
X5.54Y-1.9616
X5.545Y-2.3766
X5.545Y-2.5766
X5.63Y-1.7616
X5.63Y-1.9616
X5.635Y-2.3766
X5.635Y-2.5766
X5.72Y-2.1866
X5.725Y-1.5916
X5.88Y-3.195
X5.88Y-3.395
X6.1Y-2.2416
X6.1Y-2.4416
X6.11Y-1.6316
X6.11Y-1.8316
X6.22Y-1.6316
X6.22Y-1.8316
X6.22Y-2.2416
X6.22Y-2.4416
X6.68Y-3.195
X6.68Y-3.395
X6.935Y-2.2716
X6.935Y-2.4716
X6.945Y-1.6316
X6.945Y-1.8316
T3
X3.069Y-3.3236
X3.069Y-3.5204
X3.0692Y-2.5533
X3.0692Y-2.7501
X3.07Y-1.774
X3.07Y-1.9709
X3.07Y-4.3266
X3.07Y-4.5234
X3.2346Y-3.277
X3.2346Y-3.577
X3.2348Y-2.5016
X3.2348Y-2.8016
X3.2356Y-1.7212
X3.2356Y-2.0212
X3.2356Y-4.2796
X3.2356Y-4.5796
X3.3346Y-3.277
X3.3346Y-3.577
X3.3348Y-2.5016
X3.3348Y-2.8016
X3.3356Y-1.7212
X3.3356Y-2.0212
X3.3356Y-4.2796
X3.3356Y-4.5796
X3.4346Y-3.277
X3.4346Y-3.577
X3.4348Y-2.5016
X3.4348Y-2.8016
X3.4356Y-1.7212
X3.4356Y-2.0212
X3.4356Y-4.2796
X3.4356Y-4.5796
X3.454Y-4.905
X3.5346Y-3.277
X3.5346Y-3.577
X3.5348Y-2.5016
X3.5348Y-2.8016
X3.5356Y-1.7212
X3.5356Y-2.0212
X3.5356Y-4.2796
X3.5356Y-4.5796
X3.5524Y-4.905
X3.6346Y-3.277
X3.6346Y-3.577
X3.6348Y-2.5016
X3.6348Y-2.8016
X3.6356Y-1.7212
X3.6356Y-2.0212
X3.6356Y-4.2796
X3.6356Y-4.5796
X3.7346Y-3.277
X3.7346Y-3.577
X3.7348Y-2.5016
X3.7348Y-2.8016
X3.7356Y-1.7212
X3.7356Y-2.0212
X3.7356Y-4.2796
X3.7356Y-4.5796
X3.8346Y-3.277
X3.8346Y-3.577
X3.8348Y-2.5016
X3.8348Y-2.8016
X3.8356Y-1.7212
X3.8356Y-2.0212
X3.8356Y-4.2796
X3.8356Y-4.5796
X3.9356Y-4.2796
X3.9356Y-4.5796
X4.3Y-4.5261
X4.3Y-4.7229
X4.451Y-1.7681
X4.451Y-1.965
X4.451Y-2.3781
X4.451Y-2.575
X4.4632Y-4.4696
X4.4632Y-4.7696
X4.5632Y-4.4696
X4.5632Y-4.7696
X4.6054Y-1.7212
X4.6054Y-2.0212
X4.6054Y-2.3412
X4.6054Y-2.6412
X4.6632Y-4.4696
X4.6632Y-4.7696
X4.7054Y-1.7212
X4.7054Y-2.0212
X4.7054Y-2.3412
X4.7054Y-2.6412
X4.7632Y-4.4696
X4.7632Y-4.7696
X4.8054Y-1.7212
X4.8054Y-2.0212
X4.8054Y-2.3412
X4.8054Y-2.6412
X4.8632Y-4.4696
X4.8632Y-4.7696
X4.9054Y-1.7212
X4.9054Y-2.0212
X4.9054Y-2.3412
X4.9054Y-2.6412
X4.9632Y-4.4696
X4.9632Y-4.7696
X5.0054Y-1.7212
X5.0054Y-2.0212
X5.0054Y-2.3412
X5.0054Y-2.6412
X5.0083Y-2.935
X5.0083Y-3.625
X5.0632Y-4.4696
X5.0632Y-4.7696
X5.1054Y-1.7212
X5.1054Y-2.0212
X5.1054Y-2.3412
X5.1054Y-2.6412
X5.1632Y-4.4696
X5.1632Y-4.7696
X5.2052Y-2.935
X5.2052Y-3.625
X5.2054Y-1.7212
X5.2054Y-2.0212
X5.2054Y-2.3412
X5.2054Y-2.6412
X5.2632Y-4.4696
X5.2632Y-4.7696
X5.3054Y-1.7212
X5.3054Y-2.0212
X5.3054Y-2.3412
X5.3054Y-2.6412
X5.3143Y-2.935
X5.3226Y-3.625
X5.3632Y-4.4696
X5.3632Y-4.7696
X5.4054Y-1.7212
X5.4054Y-2.0212
X5.4054Y-2.3412
X5.4054Y-2.6412
X5.4127Y-2.935
X5.42Y-3.9231
X5.42Y-4.12
X5.421Y-3.625
X5.58Y-3.9231
X5.58Y-4.12
X5.71Y-3.0426
X5.71Y-3.141
X5.7712Y-3.88
X5.7876Y-4.23
X5.8066Y-1.9566
X5.8066Y-2.0866
X5.83Y-4.6572
X5.83Y-4.7556
X5.8576Y-2.945
X5.8766Y-2.645
X5.886Y-4.23
X5.89Y-1.6827
X5.89Y-1.7811
X5.895Y-2.285
X5.895Y-2.3834
X5.909Y-3.88
X5.956Y-2.945
X6.0034Y-1.9566
X6.0034Y-2.0866
X6.0734Y-2.645
X6.1442Y-3.2438
X6.1442Y-3.3438
X6.1442Y-3.4438
X6.1442Y-3.5438
X6.1442Y-3.6438
X6.1442Y-3.7438
X6.1442Y-3.8438
X6.1442Y-3.9438
X6.157Y-4.71
X6.157Y-4.8084
X6.1666Y-2.645
X6.1966Y-4.435
X6.233Y-1.9421
X6.233Y-2.1389
X6.2423Y-2.925
X6.2426Y-4.18
X6.3407Y-2.925
X6.341Y-4.18
X6.3634Y-2.645
X6.3716Y-1.7466
X6.3731Y-2.3666
X6.3904Y-1.9062
X6.3904Y-2.2062
X6.3934Y-4.435
X6.4311Y-4.8
X6.4442Y-3.2438
X6.4442Y-3.3438
X6.4442Y-3.4438
X6.4442Y-3.5438
X6.4442Y-3.6438
X6.4442Y-3.7438
X6.4442Y-3.8438
X6.4442Y-3.9438
X6.4904Y-1.9062
X6.4904Y-2.2062
X6.5295Y-4.8
X6.5684Y-1.7466
X6.57Y-2.3666
X6.5904Y-1.9062
X6.5904Y-2.2062
X6.594Y-2.945
X6.675Y-4.535
X6.675Y-4.765
X6.6904Y-1.9062
X6.6904Y-2.2062
X6.6924Y-2.945
X6.6988Y-3.86
X6.7026Y-2.3716
X6.7126Y-1.7166
X6.724Y-4.22
X6.801Y-2.3716
X6.811Y-1.7166
X6.8224Y-4.22
X6.8366Y-3.86
X6.93Y-2.9826
X6.93Y-3.081
X7.05Y-3.7981
X7.05Y-3.995
X7.05Y-4.1016
X7.05Y-4.2984
X7.075Y-4.535
X7.075Y-4.765
X7.08Y-4.97
X7.2769Y-4.97
X7.2916Y-2.92
X7.4884Y-2.92
T4
X3.435Y-4.015
X3.435Y-4.115
X3.535Y-4.015
X3.535Y-4.115
X3.635Y-4.015
X3.635Y-4.115
X3.735Y-4.015
X3.735Y-4.115
X3.835Y-4.015
X3.835Y-4.115
X3.935Y-4.015
X3.935Y-4.115
T5
X7.2313Y-2.2463
X7.2855Y-2.1155
X7.2855Y-2.3771
T6
X5.3502Y-3.18
X5.3502Y-3.28
X5.3502Y-3.38
T7
X7.4754Y-2.0691
X7.4754Y-2.4235
T8
X7.4844Y-2.7144
X7.4844Y-4.9394
T4
G00X7.323Y-3.5231
M15
G01X7.3033Y-3.5231
M16
G05
G00X7.323Y-3.9169
M15
G01X7.3033Y-3.9169
M16
G05
G00X7.5198Y-3.72
M15
G01X7.5002Y-3.72
M16
G05
T0
M30
